<svg version="1.0" xmlns="http://www.w3.org/2000/svg" width="2821.333" height="2645.333" viewBox="0 0 2116 1984" fill="#437a8e">
  <path d="M353 295.1c-78.2 6.6-140.3 66.4-149 143.4-.8 7.3-1 168.4-.8 602.5l.3 592.5 2.3 10c4.9 21.2 12.1 38.5 23.1 55.1 23.6 35.7 59.6 59.8 104.1 69.6l10.5 2.3h1483l10.2-2.3c64.6-14.3 111.4-59.1 126-120.7l2.8-12v-1023l-2.3-10.5c-7.2-32.7-20.2-57-42.2-79.1-25-25.1-56.1-39.9-92.2-43.8-6.1-.7-45-1.1-105.4-1.1h-95.6l6.7 7.2c15.1 16.3 26.8 33.5 37.9 55.5l7.6 15.2 71.7.3 71.8.3 9 2.8c24.6 7.7 42.3 25.4 49.6 49.7 2.1 7.1 2.3 9.7 2.7 44.2l.4 36.7-9.4-4.4c-11.3-5.4-26.9-10.6-40.3-13.6-9.7-2.2-12.1-2.3-73.2-2.6l-63.3-.4v78l57.3.3c55.6.4 57.4.4 65.1 2.6 17.5 4.9 33.2 15 43.6 27.8 6.7 8.4 14.9 24.3 17.7 34.4 1.7 6.2 1.8 24.1 1.8 409v402.5l-2.8 8.8c-4.9 15.6-11.3 26.2-22.3 36.8-11.4 10.8-20.1 15.9-35.1 20.6l-8.8 2.8H1085c-707.2 0-730.7-.1-737.5-1.8-9.5-2.6-23.7-9.7-31.2-15.7-13.9-11.1-25.3-29.7-29.3-47.5-1.9-8.9-2-13.4-2-405.8 0-358.6.2-397.5 1.6-404.5 6.8-32.8 30.5-58.1 63.4-67.6l7.5-2.1 546-.5 546-.5.3-38.8.2-38.7-552.2.3-552.3.2-9 2.1c-13.5 3.2-26.7 7.9-39.4 13.9-6.2 3-11.5 5.5-11.7 5.5-.3 0-.3-55.9-.1-124.3l.3-124.2 2.3-7.9c8.7-30.3 29.7-51 60.3-59.3 5.9-1.6 20.6-1.8 209.3-2.1 182.6-.2 203.7-.1 210.2 1.3 18 4 28.1 12.8 47.3 41.5 13.4 20.1 45 66.4 67.4 98.8 15.3 22.3 21.6 28.9 31.9 34 13.4 6.6-7.8 6.2 287 6.2 295.3 0 274.5-.4 290.4 6.2 19.9 8.2 34 23.9 40.5 44.8l2.3 7.5.3 116c.1 63.8.1 126.8 0 140l-.3 24-40.8-40.5-40.7-40.5-26.5 26.5c-14.6 14.6-26.4 26.8-26.3 27.2.2.3 35.2 35.8 77.8 78.9 87.1 88 81.9 83.4 96.5 83.4s9.7 4.2 96.7-83.6c42.5-42.9 77.4-78.4 77.6-78.7.1-.4-11.7-12.6-26.3-27.2l-26.5-26.5-41 41-40.9 40.9-.4-142.4c-.4-154-.2-147.5-5.7-168.4-12.8-48.4-52.6-87.7-102.5-101.2-21.1-5.7-4.8-5.4-287.2-5.4H958.1l-9.9-14.3c-5.4-7.8-17.9-25.9-27.7-40.2s-22-31.9-27-39c-5-7.2-13.3-19.2-18.4-26.7-6.9-10.2-11.3-15.7-17.4-21.2-24.7-22.5-46.5-33.5-77.9-39.3-8.6-1.6-24.5-1.7-213.3-1.9-112.2-.1-208.3.2-213.5.7"/>
  <path d="M1061.5 886c-90.2 7.4-168.5 43-227.6 103.7-52.4 53.8-82.8 117.6-93.5 195.8-2.3 16.4-2.6 62.3-.5 79 3 24.8 9.4 53.8 16.1 73 20.4 57.9 56 107.6 104 145.2 51.3 40.2 107.3 62.8 178.5 72 20.2 2.6 78.8 2.6 99 0 41.2-5.4 73.2-14.1 106.6-29.3 12.7-5.7 33.5-16.9 34.5-18.5.3-.6-2.3-5.8-5.9-11.7-14.4-23.9-32-52.7-32.4-53.2-.2-.2-1.6.4-3.1 1.3-1.5 1-7 4-12.3 6.7-33.5 17.1-68.5 27.3-106.4 31-14.1 1.4-46.1 1.4-60.6 0-52.5-5.2-107.6-27.8-145.9-59.8-47.8-40-76.8-93.7-86.7-160.7-2.4-16.6-2.4-55.1.1-72 5.7-39.9 17.5-73.8 36.1-104.2 26.1-42.5 62.9-76 108-97.9 38.4-18.7 78.2-27.6 124-27.6 28.5 0 46 2.2 73 8.9 34.4 8.6 69.6 25.8 96 46.8 16.5 13.2 36.6 35.3 48.1 53.1 12 18.6 22.2 43.1 28.8 69 5.5 21.4 8.3 54.5 6.6 76.1-3.6 45.8-14.7 76.4-34.8 96-16.8 16.4-42.1 20.1-55.8 8-5.3-4.6-7.9-9.3-9.9-17.9-2.2-9.5-1.8-21.1 2-58.3 2-18.7 5.6-53.6 8-77.5 8.6-82.8 9.5-91.5 10.1-95.8l.6-4.2h-45.6c-25.1 0-45.6.3-45.6.7 0 1.5-3.1 25.9-3.6 28.1-.4 2.2-1 1.9-7.7-4.5-18.3-17.4-39.1-27.6-64.2-31.7-44.5-7.2-89.4 3.3-124.5 29.2-9.2 6.8-23.3 20.3-30.9 29.7-24.2 29.5-38.3 66.9-41 108.3-2.2 33.4 3.5 64.5 16.5 90.3 21.7 43.3 58.2 70.2 107.9 79.5 14.9 2.8 44.3 2.6 58-.4 30.2-6.7 52.1-18.5 71.7-39l6.8-7 4.6 7c20.7 31.1 63.6 48.5 110.6 44.7 39.4-3.2 69.2-16.3 94.8-41.9 13.5-13.4 22-25.6 32-45.3 12.2-24.3 18.4-45.7 23.2-80.7 1.9-14.1 1.6-57.3-.5-73-5.1-37.2-15.7-72.4-31-102.5-11.2-22.2-30.5-49-49-68.2-53.3-55.3-122.5-88.4-206.7-98.8-14.9-1.9-64.4-2.8-80.5-1.5m49.2 247.4c22.4 7.3 39.5 26.5 46 51.4 3.1 12 4.2 32.7 2.4 45.2-5.7 38.6-26.8 68.7-57.1 81.5-19 8-47.3 7.4-65-1.4-28.4-14.1-43-40.4-43-77.6 0-44.6 24-83.7 59.6-97.1 11.9-4.5 17.7-5.3 33.9-5 13.1.2 16 .6 23.2 3"/>
</svg>
